<svg width="400" height="399" viewBox="0 0 400 399" fill="none" xmlns="http://www.w3.org/2000/svg">
<g clip-path="url(#clip0_1241_6065)">
<path d="M301.03 94.8176H298.836V34.7606C298.836 25.5426 295.174 16.7021 288.656 10.1839C282.138 3.66577 273.297 0.00390625 264.079 0.00390625H136.836C132.271 0.00390625 127.752 0.902917 123.535 2.64961C119.318 4.3963 115.487 6.95646 112.259 10.1839C109.032 13.4114 106.472 17.2429 104.725 21.4598C102.978 25.6767 102.079 30.1963 102.079 34.7606V364.242C102.079 368.806 102.978 373.326 104.725 377.542C106.472 381.759 109.032 385.591 112.259 388.818C115.487 392.046 119.318 394.606 123.535 396.353C127.752 398.099 132.271 398.998 136.836 398.998H264.076C273.294 398.998 282.135 395.336 288.653 388.818C295.171 382.3 298.833 373.46 298.833 364.242V137.568H301.03V94.8176Z" fill="#6B0FAE"/>
<path d="M265.483 9.04492H248.874C249.638 10.9175 249.929 12.9491 249.723 14.9608C249.516 16.9726 248.818 18.9027 247.69 20.5811C246.562 22.2596 245.039 23.6349 243.254 24.5859C241.469 25.5369 239.478 26.0344 237.456 26.0346H164.556C162.534 26.0345 160.542 25.5371 158.758 24.5861C156.973 23.6351 155.449 22.2598 154.321 20.5814C153.193 18.9029 152.495 16.9727 152.289 14.961C152.082 12.9492 152.374 10.9175 153.137 9.04492H137.627C130.743 9.04492 124.14 11.7797 119.272 16.6477C114.404 21.5157 111.669 28.1182 111.669 35.0025V364.004C111.669 370.889 114.404 377.491 119.272 382.359C124.14 387.227 130.743 389.962 137.627 389.962H265.478C272.362 389.962 278.964 387.227 283.832 382.359C288.7 377.491 291.435 370.889 291.435 364.004V35.0031C291.435 28.1195 288.7 21.5177 283.833 16.6499C278.966 11.782 272.365 9.04665 265.482 9.04548L265.483 9.04492Z" fill="white"/>
<path d="M131.031 46.6387H268.725C269.903 46.6387 271.033 47.1066 271.865 47.9396C272.698 48.7726 273.166 49.9024 273.166 51.0804V86.6145C273.166 87.7925 272.698 88.9223 271.865 89.7553C271.033 90.5882 269.903 91.0562 268.725 91.0562H131.031C129.853 91.0562 128.723 90.5882 127.89 89.7553C127.057 88.9223 126.589 87.7925 126.589 86.6145V51.0804C126.589 49.9024 127.057 48.7726 127.89 47.9396C128.723 47.1066 129.853 46.6387 131.031 46.6387Z" fill="#F2F2F2"/>
<path d="M131.031 98.4941H268.725C269.912 98.5037 271.047 98.9845 271.88 99.8308C272.713 100.677 273.176 101.82 273.166 103.007V362.486C273.176 363.674 272.713 364.816 271.88 365.663C271.047 366.509 269.912 366.99 268.725 366.999H131.031C129.844 366.99 128.709 366.509 127.876 365.663C127.043 364.816 126.58 363.674 126.589 362.486V103.007C126.58 101.82 127.043 100.677 127.876 99.8308C128.709 98.9845 129.844 98.5037 131.031 98.4941Z" fill="#F2F2F2"/>
<path d="M158.463 64.0703H21.7112C16.805 64.0703 12.8278 68.0476 12.8278 72.9538V93.6707C12.8278 98.5769 16.805 102.554 21.7112 102.554H158.463C163.369 102.554 167.347 98.5769 167.347 93.6707V72.9538C167.347 68.0476 163.369 64.0703 158.463 64.0703Z" fill="#090814"/>
<path d="M157.27 65.8203H22.9055C18.306 65.8203 14.5773 69.549 14.5773 74.1486V92.4775C14.5773 97.0771 18.306 100.806 22.9055 100.806H157.27C161.869 100.806 165.598 97.0771 165.598 92.4775V74.1486C165.598 69.549 161.869 65.8203 157.27 65.8203Z" fill="white"/>
<path d="M150.61 89.0324C150.417 89.0322 150.227 88.9869 150.054 88.9001C149.881 88.8134 149.731 88.6876 149.616 88.5327L146.568 84.4697C146.371 84.206 146.286 83.8746 146.332 83.5483C146.379 83.222 146.553 82.9276 146.817 82.7299C147.08 82.5321 147.412 82.4472 147.738 82.4938C148.064 82.5404 148.359 82.7147 148.557 82.9783L150.55 85.6367L155.671 77.9558C155.854 77.6816 156.138 77.4912 156.461 77.4265C156.785 77.3618 157.12 77.4282 157.394 77.611C157.669 77.7938 157.859 78.0781 157.924 78.4013C157.988 78.7245 157.922 79.0602 157.739 79.3344L151.645 88.4789C151.535 88.6447 151.386 88.7816 151.213 88.8782C151.039 88.9748 150.844 89.0283 150.645 89.0341L150.61 89.0324Z" fill="#08B549"/>
<path d="M26.9385 71.5918H40.8922C42.1258 71.5918 43.3088 72.0818 44.181 72.9541C45.0532 73.8263 45.5433 75.0093 45.5433 76.2429V90.1966C45.5433 91.4302 45.0532 92.6132 44.181 93.4854C43.3088 94.3577 42.1258 94.8477 40.8922 94.8477H26.9385C25.705 94.8477 24.522 94.3577 23.6497 93.4854C22.7775 92.6132 22.2875 91.4302 22.2875 90.1966V76.2429C22.2875 75.0093 22.7775 73.8263 23.6497 72.9541C24.522 72.0818 25.705 71.5918 26.9385 71.5918Z" fill="#08B549"/>
<path d="M33.495 90.9727V89.4664C32.4395 89.4488 31.4224 89.0673 30.6157 88.3865C30.2526 88.045 29.9646 87.6317 29.7699 87.1729C29.5752 86.7141 29.4781 86.2198 29.4847 85.7214H31.529C31.5348 85.9705 31.5921 86.2157 31.6972 86.4415C31.8023 86.6674 31.9529 86.8691 32.1397 87.034C32.5261 87.3523 32.9985 87.5484 33.4967 87.5975V83.9969L32.8743 83.8248C32.0329 83.6306 31.2552 83.224 30.6157 82.6438C30.3441 82.3724 30.1318 82.0475 29.9921 81.6898C29.8525 81.3321 29.7886 80.9493 29.8045 80.5657C29.7925 79.9441 29.9584 79.3321 30.2825 78.8017C30.6063 78.2859 31.0576 77.8623 31.5928 77.5719C32.1804 77.2523 32.8288 77.0603 33.4956 77.0084V75.4688H34.4261V77.0017C35.1108 77.0323 35.78 77.216 36.3844 77.5392C36.9178 77.8274 37.3681 78.248 37.6919 78.7606C38.0113 79.275 38.1841 79.8669 38.1916 80.4724H36.1806C36.151 80.0495 35.9588 79.6545 35.6443 79.3703C35.3004 79.0784 34.8752 78.8991 34.4261 78.8567V82.2552L34.9458 82.3929C35.5129 82.539 36.0609 82.751 36.5787 83.0247C37.0852 83.2875 37.5218 83.6672 37.8524 84.1324C38.1967 84.6501 38.3689 85.2633 38.3443 85.8847C38.3582 86.3482 38.2737 86.8094 38.0965 87.238C37.9193 87.6665 37.6533 88.0526 37.316 88.3709C36.5152 89.0686 35.491 89.4563 34.4289 89.4636V90.9716L33.495 90.9727ZM34.4256 87.5909C34.9204 87.5459 35.3885 87.3464 35.7636 87.0206C35.9267 86.8775 36.0567 86.7005 36.1445 86.502C36.2324 86.3035 36.2759 86.0883 36.2722 85.8713C36.2821 85.6719 36.2409 85.4733 36.1526 85.2943C36.0643 85.1152 35.9317 84.9616 35.7675 84.8481C35.3565 84.578 34.9033 84.3784 34.4267 84.2573L34.4256 87.5909ZM33.495 82.0092V78.8711C33.0555 78.918 32.6431 79.1067 32.3202 79.4086C32.1835 79.5419 32.0755 79.7017 32.0028 79.8782C31.9302 80.0548 31.8944 80.2443 31.8977 80.4352C31.8873 80.6333 31.927 80.8308 32.0129 81.0096C32.0989 81.1884 32.2284 81.3428 32.3896 81.4585C32.7273 81.6996 33.1012 81.8855 33.4972 82.0092H33.495Z" fill="white"/>
<path d="M57.1713 73.5293H126.94C127.449 73.5293 127.953 73.6296 128.423 73.8243C128.893 74.0191 129.321 74.3046 129.68 74.6645C130.04 75.0245 130.326 75.4518 130.521 75.922C130.715 76.3923 130.816 76.8963 130.816 77.4053C130.816 77.9143 130.715 78.4183 130.521 78.8886C130.326 79.3588 130.04 79.7861 129.68 80.146C129.321 80.5059 128.893 80.7914 128.423 80.9862C127.953 81.181 127.449 81.2813 126.94 81.2813H57.1713C56.1433 81.2813 55.1574 80.8729 54.4305 80.146C53.7036 79.4191 53.2953 78.4333 53.2953 77.4053C53.2953 76.3773 53.7036 75.3914 54.4305 74.6645C55.1574 73.9377 56.1433 73.5293 57.1713 73.5293Z" fill="#E6E6E6"/>
<path d="M57.1713 85.1582H95.9315C96.4405 85.1582 96.9445 85.2585 97.4147 85.4532C97.885 85.648 98.3123 85.9335 98.6722 86.2935C99.0321 86.6534 99.3176 87.0807 99.5124 87.5509C99.7072 88.0212 99.8074 88.5252 99.8074 89.0342C99.8074 89.5432 99.7072 90.0472 99.5124 90.5175C99.3176 90.9877 99.0321 91.415 98.6722 91.7749C98.3123 92.1348 97.885 92.4203 97.4147 92.6151C96.9445 92.8099 96.4405 92.9102 95.9315 92.9102H57.1713C56.1433 92.9102 55.1574 92.5018 54.4305 91.7749C53.7036 91.048 53.2953 90.0622 53.2953 89.0342C53.2953 88.0062 53.7036 87.0203 54.4305 86.2935C55.1574 85.5666 56.1433 85.1582 57.1713 85.1582Z" fill="#E6E6E6"/>
<path d="M370.125 122.965H232.79C227.884 122.965 223.906 126.942 223.906 131.848V152.565C223.906 157.471 227.884 161.449 232.79 161.449H370.125C375.031 161.449 379.008 157.471 379.008 152.565V131.848C379.008 126.942 375.031 122.965 370.125 122.965Z" fill="#090814"/>
<path d="M368.348 124.715H233.984C229.385 124.715 225.656 128.444 225.656 133.043V151.372C225.656 155.972 229.385 159.7 233.984 159.7H368.348C372.948 159.7 376.676 155.972 376.676 151.372V133.043C376.676 128.444 372.948 124.715 368.348 124.715Z" fill="white"/>
<path d="M361.853 148.144C361.66 148.144 361.47 148.098 361.297 148.011C361.124 147.925 360.974 147.799 360.859 147.644L357.811 143.581C357.614 143.317 357.529 142.986 357.575 142.66C357.622 142.333 357.796 142.039 358.06 141.841C358.323 141.643 358.655 141.559 358.981 141.605C359.307 141.652 359.602 141.826 359.8 142.09L361.793 144.748L366.914 137.067C367.097 136.793 367.381 136.602 367.704 136.538C368.028 136.473 368.363 136.54 368.637 136.722C368.912 136.905 369.102 137.189 369.167 137.513C369.231 137.836 369.165 138.172 368.982 138.446L362.888 147.59C362.778 147.756 362.629 147.893 362.456 147.99C362.282 148.086 362.087 148.14 361.888 148.145L361.853 148.144Z" fill="#08B549"/>
<path d="M238.182 130.703H252.135C253.369 130.703 254.552 131.193 255.424 132.065C256.296 132.938 256.786 134.121 256.786 135.354V149.308C256.786 150.542 256.296 151.725 255.424 152.597C254.552 153.469 253.369 153.959 252.135 153.959H238.182C236.948 153.959 235.765 153.469 234.893 152.597C234.021 151.725 233.531 150.542 233.531 149.308V135.354C233.531 134.121 234.021 132.938 234.893 132.065C235.765 131.193 236.948 130.703 238.182 130.703Z" fill="#08B549"/>
<path d="M244.738 150.084V148.578C243.683 148.56 242.666 148.179 241.859 147.498C241.496 147.156 241.208 146.743 241.013 146.284C240.818 145.825 240.721 145.331 240.728 144.833H242.772C242.778 145.082 242.835 145.327 242.94 145.553C243.045 145.779 243.196 145.98 243.383 146.145C243.769 146.464 244.242 146.66 244.74 146.709V143.108L244.117 142.936C243.276 142.742 242.498 142.335 241.859 141.755C241.587 141.484 241.375 141.159 241.235 140.801C241.096 140.443 241.032 140.061 241.048 139.677C241.036 139.055 241.202 138.443 241.526 137.913C241.849 137.397 242.301 136.974 242.836 136.683C243.424 136.364 244.072 136.172 244.739 136.12V134.58H245.669V136.113C246.354 136.144 247.023 136.327 247.628 136.65C248.161 136.939 248.611 137.359 248.935 137.872C249.254 138.386 249.427 138.978 249.435 139.584H247.424C247.394 139.161 247.202 138.766 246.887 138.482C246.544 138.19 246.118 138.01 245.669 137.968V141.367L246.189 141.504C246.756 141.65 247.304 141.862 247.822 142.136C248.328 142.399 248.765 142.779 249.096 143.244C249.44 143.761 249.612 144.375 249.587 144.996C249.601 145.46 249.517 145.921 249.34 146.349C249.162 146.778 248.896 147.164 248.559 147.482C247.758 148.18 246.734 148.568 245.672 148.575V150.083L244.738 150.084ZM245.669 146.702C246.164 146.657 246.632 146.458 247.007 146.132C247.17 145.989 247.3 145.812 247.388 145.613C247.476 145.415 247.519 145.2 247.515 144.983C247.525 144.783 247.484 144.585 247.396 144.406C247.307 144.227 247.175 144.073 247.011 143.959C246.6 143.689 246.147 143.49 245.67 143.369L245.669 146.702ZM244.738 141.121V137.982C244.299 138.029 243.886 138.218 243.563 138.52C243.427 138.653 243.319 138.813 243.246 138.99C243.173 139.166 243.138 139.356 243.141 139.547C243.131 139.745 243.17 139.942 243.256 140.121C243.342 140.3 243.472 140.454 243.633 140.57C243.97 140.811 244.344 140.997 244.74 141.121H244.738Z" fill="white"/>
<path d="M268.414 132.641H338.182C338.691 132.641 339.195 132.741 339.665 132.936C340.136 133.13 340.563 133.416 340.923 133.776C341.283 134.136 341.568 134.563 341.763 135.033C341.958 135.504 342.058 136.008 342.058 136.517C342.058 137.026 341.958 137.53 341.763 138C341.568 138.47 341.283 138.897 340.923 139.257C340.563 139.617 340.136 139.903 339.665 140.098C339.195 140.292 338.691 140.393 338.182 140.393H268.414C267.386 140.393 266.4 139.984 265.673 139.257C264.946 138.53 264.538 137.545 264.538 136.517C264.538 135.489 264.946 134.503 265.673 133.776C266.4 133.049 267.386 132.641 268.414 132.641Z" fill="#E6E6E6"/>
<path d="M268.414 144.268H307.174C307.683 144.268 308.187 144.368 308.657 144.563C309.127 144.757 309.555 145.043 309.915 145.403C310.275 145.763 310.56 146.19 310.755 146.66C310.95 147.131 311.05 147.635 311.05 148.144C311.05 148.653 310.95 149.157 310.755 149.627C310.56 150.097 310.275 150.524 309.915 150.884C309.555 151.244 309.127 151.53 308.657 151.725C308.187 151.919 307.683 152.02 307.174 152.02H268.414C267.386 152.02 266.4 151.611 265.673 150.884C264.946 150.157 264.538 149.172 264.538 148.144C264.538 147.116 264.946 146.13 265.673 145.403C266.4 144.676 267.386 144.268 268.414 144.268Z" fill="#E6E6E6"/>
<path d="M181.204 183.021H43.8688C38.9626 183.021 34.9854 186.999 34.9854 191.905V212.622C34.9854 217.528 38.9626 221.505 43.8688 221.505H181.204C186.11 221.505 190.087 217.528 190.087 212.622V191.905C190.087 186.999 186.11 183.021 181.204 183.021Z" fill="#090814"/>
<path d="M179.427 184.771H45.0631C40.4635 184.771 36.7349 188.5 36.7349 193.1V211.429C36.7349 216.028 40.4635 219.757 45.0631 219.757H179.427C184.027 219.757 187.755 216.028 187.755 211.429V193.1C187.755 188.5 184.027 184.771 179.427 184.771Z" fill="white"/>
<path d="M172.897 208.22C172.704 208.22 172.514 208.174 172.341 208.088C172.168 208.001 172.018 207.875 171.903 207.72L168.855 203.657C168.658 203.393 168.573 203.062 168.619 202.736C168.666 202.41 168.84 202.115 169.104 201.917C169.367 201.72 169.699 201.635 170.025 201.681C170.351 201.728 170.646 201.902 170.843 202.166L172.837 204.824L177.958 197.143C178.141 196.869 178.425 196.679 178.748 196.614C179.072 196.549 179.407 196.616 179.681 196.799C179.956 196.981 180.146 197.266 180.211 197.589C180.275 197.912 180.209 198.248 180.026 198.522L173.932 207.666C173.822 207.832 173.673 207.969 173.5 208.066C173.326 208.162 173.131 208.216 172.932 208.222L172.897 208.22Z" fill="#08B549"/>
<path d="M49.2261 190.779H63.1798C64.4133 190.779 65.5964 191.269 66.4686 192.142C67.3408 193.014 67.8309 194.197 67.8309 195.43V209.384C67.8309 210.618 67.3408 211.801 66.4686 212.673C65.5964 213.545 64.4133 214.035 63.1798 214.035H49.2261C47.9926 214.035 46.8096 213.545 45.9373 212.673C45.0651 211.801 44.5751 210.618 44.5751 209.384V195.43C44.5751 194.197 45.0651 193.014 45.9373 192.142C46.8096 191.269 47.9926 190.779 49.2261 190.779Z" fill="#08B549"/>
<path d="M55.7826 210.16V208.654C54.7271 208.636 53.71 208.255 52.9033 207.574C52.5402 207.232 52.2522 206.819 52.0575 206.36C51.8628 205.902 51.7657 205.407 51.7723 204.909H53.8166C53.8224 205.158 53.8797 205.403 53.9848 205.629C54.0899 205.855 54.2405 206.057 54.4273 206.221C54.8137 206.54 55.2861 206.736 55.7843 206.785V203.184L55.1619 203.012C54.3205 202.818 53.5428 202.412 52.9033 201.831C52.6317 201.56 52.4194 201.235 52.2797 200.877C52.1401 200.52 52.0762 200.137 52.0921 199.753C52.0801 199.132 52.246 198.52 52.5701 197.989C52.8939 197.473 53.3452 197.05 53.8804 196.759C54.468 196.44 55.1164 196.248 55.7832 196.196V194.656H56.7137V196.189C57.3984 196.22 58.0676 196.403 58.672 196.727C59.2054 197.015 59.6557 197.436 59.9795 197.948C60.2989 198.463 60.4717 199.054 60.4792 199.66H58.4682C58.4386 199.237 58.2464 198.842 57.9319 198.558C57.588 198.266 57.1628 198.087 56.7137 198.044V201.443L57.2334 201.58C57.8005 201.726 58.3485 201.939 58.8663 202.212C59.3728 202.475 59.8094 202.855 60.14 203.32C60.4843 203.838 60.6565 204.451 60.6319 205.072C60.6458 205.536 60.5613 205.997 60.3841 206.425C60.2069 206.854 59.9409 207.24 59.6036 207.558C58.8028 208.256 57.7786 208.644 56.7165 208.651V210.159L55.7826 210.16ZM56.7132 206.778C57.208 206.733 57.6761 206.534 58.0512 206.208C58.2143 206.065 58.3443 205.888 58.4321 205.69C58.52 205.491 58.5635 205.276 58.5598 205.059C58.5697 204.859 58.5285 204.661 58.4402 204.482C58.3519 204.303 58.2193 204.149 58.0551 204.036C57.6441 203.766 57.1909 203.566 56.7143 203.445L56.7132 206.778ZM55.7826 201.197V198.059C55.3431 198.106 54.9307 198.294 54.6078 198.596C54.4711 198.729 54.3631 198.889 54.2904 199.066C54.2178 199.242 54.182 199.432 54.1853 199.623C54.1749 199.821 54.2146 200.018 54.3005 200.197C54.3865 200.376 54.516 200.53 54.6772 200.646C55.0149 200.887 55.3888 201.073 55.7848 201.197H55.7826Z" fill="white"/>
<path d="M79.4582 192.717H149.227C149.736 192.717 150.24 192.817 150.71 193.012C151.18 193.207 151.608 193.492 151.967 193.852C152.327 194.212 152.613 194.639 152.808 195.11C153.002 195.58 153.103 196.084 153.103 196.593C153.103 197.102 153.002 197.606 152.808 198.076C152.613 198.546 152.327 198.974 151.967 199.334C151.608 199.693 151.18 199.979 150.71 200.174C150.24 200.369 149.736 200.469 149.227 200.469H79.4582C78.4303 200.469 77.4444 200.06 76.7175 199.334C75.9906 198.607 75.5823 197.621 75.5823 196.593C75.5823 195.565 75.9906 194.579 76.7175 193.852C77.4444 193.125 78.4303 192.717 79.4582 192.717Z" fill="#E6E6E6"/>
<path d="M79.4582 204.346H118.218C118.727 204.346 119.231 204.446 119.702 204.641C120.172 204.836 120.599 205.121 120.959 205.481C121.319 205.841 121.605 206.268 121.799 206.738C121.994 207.209 122.094 207.713 122.094 208.222C122.094 208.731 121.994 209.235 121.799 209.705C121.605 210.175 121.319 210.603 120.959 210.962C120.599 211.322 120.172 211.608 119.702 211.803C119.231 211.997 118.727 212.098 118.218 212.098H79.4582C78.4303 212.098 77.4444 211.689 76.7175 210.962C75.9906 210.236 75.5823 209.25 75.5823 208.222C75.5823 207.194 75.9906 206.208 76.7175 205.481C77.4444 204.754 78.4303 204.346 79.4582 204.346Z" fill="#E6E6E6"/>
<path d="M391.117 241.916H253.782C248.875 241.916 244.898 245.893 244.898 250.8V272.1C244.898 277.006 248.875 280.983 253.782 280.983H391.117C396.023 280.983 400 277.006 400 272.1V250.8C400 245.893 396.023 241.916 391.117 241.916Z" fill="#090814"/>
<path d="M389.923 244.248H255.559C250.959 244.248 247.231 247.977 247.231 252.576V270.905C247.231 275.505 250.959 279.234 255.559 279.234H389.923C394.523 279.234 398.251 275.505 398.251 270.905V252.576C398.251 247.977 394.523 244.248 389.923 244.248Z" fill="white"/>
<path d="M383.171 267.331C382.978 267.331 382.788 267.286 382.615 267.199C382.443 267.112 382.293 266.986 382.177 266.832L379.129 262.768C378.932 262.505 378.847 262.173 378.893 261.847C378.94 261.521 379.114 261.226 379.378 261.029C379.642 260.831 379.973 260.746 380.299 260.793C380.626 260.839 380.92 261.014 381.118 261.277L383.111 263.936L388.232 256.255C388.415 255.98 388.699 255.79 389.023 255.725C389.346 255.661 389.681 255.727 389.956 255.91C390.23 256.093 390.42 256.377 390.485 256.7C390.55 257.023 390.483 257.359 390.3 257.633L384.206 266.778C384.096 266.943 383.948 267.08 383.774 267.177C383.6 267.274 383.405 267.327 383.206 267.333L383.171 267.331Z" fill="#08B549"/>
<path d="M259.5 249.891H273.453C274.687 249.891 275.87 250.381 276.742 251.253C277.615 252.125 278.105 253.308 278.105 254.542V268.495C278.105 269.729 277.615 270.912 276.742 271.784C275.87 272.657 274.687 273.147 273.453 273.147H259.5C258.266 273.147 257.083 272.657 256.211 271.784C255.339 270.912 254.849 269.729 254.849 268.495V254.542C254.849 253.308 255.339 252.125 256.211 251.253C257.083 250.381 258.266 249.891 259.5 249.891Z" fill="#08B549"/>
<path d="M266.056 269.272V267.765C265.001 267.748 263.984 267.366 263.177 266.685C262.814 266.344 262.526 265.931 262.331 265.472C262.136 265.013 262.039 264.519 262.046 264.02H264.09C264.096 264.269 264.153 264.514 264.258 264.74C264.364 264.966 264.514 265.168 264.701 265.333C265.087 265.651 265.56 265.847 266.058 265.896V262.296L265.436 262.124C264.594 261.929 263.817 261.523 263.177 260.943C262.905 260.671 262.693 260.346 262.553 259.989C262.414 259.631 262.35 259.248 262.366 258.864C262.354 258.243 262.52 257.631 262.844 257.101C263.168 256.585 263.619 256.161 264.154 255.871C264.742 255.551 265.39 255.359 266.057 255.307V253.768H266.987V255.301C267.672 255.331 268.341 255.515 268.946 255.838C269.479 256.126 269.929 256.547 270.253 257.059C270.573 257.574 270.745 258.166 270.753 258.771H268.742C268.712 258.348 268.52 257.953 268.206 257.669C267.862 257.377 267.436 257.198 266.987 257.156V260.554L267.507 260.692C268.074 260.838 268.622 261.05 269.14 261.324C269.646 261.586 270.083 261.966 270.414 262.431C270.758 262.949 270.93 263.562 270.906 264.183C270.919 264.647 270.835 265.108 270.658 265.537C270.481 265.965 270.215 266.351 269.877 266.67C269.077 267.367 268.052 267.755 266.99 267.762V269.27L266.056 269.272ZM266.987 265.89C267.482 265.845 267.95 265.645 268.325 265.319C268.488 265.176 268.618 264.999 268.706 264.801C268.794 264.602 268.837 264.387 268.833 264.17C268.843 263.971 268.802 263.772 268.714 263.593C268.626 263.414 268.493 263.26 268.329 263.147C267.918 262.877 267.465 262.677 266.988 262.556L266.987 265.89ZM266.056 260.308V257.17C265.617 257.217 265.204 257.406 264.881 257.707C264.745 257.841 264.637 258.001 264.564 258.177C264.491 258.354 264.456 258.543 264.459 258.734C264.449 258.932 264.488 259.13 264.574 259.308C264.66 259.487 264.79 259.642 264.951 259.757C265.289 259.998 265.662 260.184 266.059 260.308H266.056Z" fill="white"/>
<path d="M289.732 251.828H359.501C360.01 251.828 360.514 251.928 360.984 252.123C361.454 252.318 361.882 252.603 362.242 252.963C362.602 253.323 362.887 253.751 363.082 254.221C363.277 254.691 363.377 255.195 363.377 255.704C363.377 256.213 363.277 256.717 363.082 257.187C362.887 257.658 362.602 258.085 362.242 258.445C361.882 258.805 361.454 259.09 360.984 259.285C360.514 259.48 360.01 259.58 359.501 259.58H289.732C288.704 259.58 287.719 259.172 286.992 258.445C286.265 257.718 285.856 256.732 285.856 255.704C285.856 254.676 286.265 253.69 286.992 252.963C287.719 252.236 288.704 251.828 289.732 251.828Z" fill="#E6E6E6"/>
<path d="M289.732 263.457H328.493C329.002 263.457 329.506 263.557 329.976 263.752C330.446 263.947 330.873 264.232 331.233 264.592C331.593 264.952 331.879 265.379 332.074 265.85C332.268 266.32 332.369 266.824 332.369 267.333C332.369 267.842 332.268 268.346 332.074 268.816C331.879 269.287 331.593 269.714 331.233 270.074C330.873 270.434 330.446 270.719 329.976 270.914C329.506 271.109 329.002 271.209 328.493 271.209H289.732C288.704 271.209 287.719 270.801 286.992 270.074C286.265 269.347 285.856 268.361 285.856 267.333C285.856 266.305 286.265 265.319 286.992 264.592C287.719 263.865 288.704 263.457 289.732 263.457Z" fill="#E6E6E6"/>
<path d="M146.218 301.391H8.88346C3.97726 301.391 0 305.368 0 310.274V330.991C0 335.897 3.97726 339.875 8.88346 339.875H146.218C151.125 339.875 155.102 335.897 155.102 330.991V310.274C155.102 305.368 151.125 301.391 146.218 301.391Z" fill="#090814"/>
<path d="M145.025 303.141H10.0778C5.47819 303.141 1.74951 306.869 1.74951 311.469V329.798C1.74951 334.397 5.47819 338.126 10.0778 338.126H145.025C149.624 338.126 153.353 334.397 153.353 329.798V311.469C153.353 306.869 149.624 303.141 145.025 303.141Z" fill="white"/>
<path d="M138.013 326.441C137.82 326.44 137.63 326.395 137.457 326.308C137.285 326.222 137.135 326.096 137.019 325.941L133.971 321.878C133.774 321.614 133.689 321.283 133.735 320.957C133.782 320.63 133.956 320.336 134.22 320.138C134.484 319.94 134.815 319.855 135.141 319.902C135.468 319.949 135.762 320.123 135.96 320.387L137.953 323.045L143.074 315.364C143.257 315.09 143.541 314.899 143.865 314.835C144.188 314.77 144.523 314.836 144.798 315.019C145.072 315.202 145.262 315.486 145.327 315.81C145.392 316.133 145.325 316.468 145.142 316.743L139.048 325.887C138.938 326.053 138.79 326.19 138.616 326.286C138.442 326.383 138.247 326.436 138.048 326.442L138.013 326.441Z" fill="#08B549"/>
<path d="M14.3418 309H28.2955C29.5291 309 30.7121 309.49 31.5843 310.362C32.4566 311.235 32.9466 312.418 32.9466 313.651V327.605C32.9466 328.838 32.4566 330.021 31.5843 330.894C30.7121 331.766 29.5291 332.256 28.2955 332.256H14.3418C13.1083 332.256 11.9253 331.766 11.0531 330.894C10.1808 330.021 9.6908 328.838 9.6908 327.605V313.651C9.6908 312.418 10.1808 311.235 11.0531 310.362C11.9253 309.49 13.1083 309 14.3418 309Z" fill="#08B549"/>
<path d="M20.8983 328.381V326.875C19.8428 326.857 18.8258 326.476 18.019 325.795C17.656 325.453 17.3679 325.04 17.1732 324.581C16.9785 324.122 16.8814 323.628 16.888 323.13H18.9323C18.9381 323.379 18.9954 323.624 19.1005 323.85C19.2056 324.076 19.3563 324.277 19.5431 324.442C19.9295 324.76 20.4018 324.957 20.9 325.006V321.405L20.2776 321.233C19.4362 321.039 18.6586 320.632 18.019 320.052C17.7474 319.781 17.5351 319.456 17.3955 319.098C17.2558 318.74 17.1919 318.358 17.2078 317.974C17.1958 317.352 17.3617 316.74 17.6859 316.21C18.0096 315.694 18.4609 315.271 18.9962 314.98C19.5837 314.661 20.2321 314.469 20.8989 314.417V312.877H21.8294V314.41C22.5141 314.441 23.1833 314.624 23.7877 314.947C24.3211 315.236 24.7714 315.656 25.0952 316.169C25.4147 316.683 25.5874 317.275 25.5949 317.881H23.5839C23.5543 317.458 23.3621 317.063 23.0476 316.778C22.7037 316.487 22.2785 316.307 21.8294 316.265V319.663L22.3491 319.801C22.9162 319.947 23.4643 320.159 23.982 320.433C24.4885 320.696 24.9251 321.075 25.2557 321.541C25.6001 322.058 25.7722 322.672 25.7476 323.293C25.7615 323.756 25.677 324.218 25.4998 324.646C25.3226 325.075 25.0566 325.461 24.7193 325.779C23.9186 326.477 22.8943 326.864 21.8322 326.872V328.38L20.8983 328.381ZM21.8289 324.999C22.3237 324.954 22.7918 324.755 23.167 324.429C23.3301 324.286 23.46 324.109 23.5479 323.91C23.6357 323.712 23.6793 323.497 23.6755 323.28C23.6854 323.08 23.6442 322.882 23.5559 322.702C23.4676 322.523 23.335 322.37 23.1708 322.256C22.7598 321.986 22.3067 321.787 21.83 321.666L21.8289 324.999ZM20.8983 319.417V316.279C20.4588 316.326 20.0464 316.515 19.7235 316.817C19.5868 316.95 19.4788 317.11 19.4062 317.286C19.3335 317.463 19.2977 317.653 19.301 317.843C19.2907 318.042 19.3303 318.239 19.4163 318.418C19.5022 318.597 19.6317 318.751 19.7929 318.867C20.1306 319.108 20.5045 319.294 20.9006 319.417H20.8983Z" fill="white"/>
<path d="M44.5738 310.938H114.342C114.851 310.937 115.355 311.038 115.826 311.233C116.296 311.427 116.723 311.713 117.083 312.073C117.443 312.433 117.728 312.86 117.923 313.33C118.118 313.8 118.218 314.304 118.218 314.813C118.218 315.322 118.118 315.827 117.923 316.297C117.728 316.767 117.443 317.194 117.083 317.554C116.723 317.914 116.296 318.2 115.826 318.394C115.355 318.589 114.851 318.689 114.342 318.689H44.5738C43.5459 318.689 42.56 318.281 41.8331 317.554C41.1062 316.827 40.6979 315.841 40.6979 314.813C40.6979 313.786 41.1062 312.8 41.8331 312.073C42.56 311.346 43.5459 310.938 44.5738 310.938Z" fill="#E6E6E6"/>
<path d="M44.5738 322.566H83.334C83.843 322.566 84.3471 322.667 84.8173 322.861C85.2876 323.056 85.7148 323.342 86.0748 323.702C86.4347 324.062 86.7202 324.489 86.915 324.959C87.1097 325.429 87.21 325.933 87.21 326.442C87.21 326.951 87.1097 327.455 86.915 327.926C86.7202 328.396 86.4347 328.823 86.0748 329.183C85.7148 329.543 85.2876 329.829 84.8173 330.023C84.3471 330.218 83.843 330.318 83.334 330.318H44.5738C43.5459 330.318 42.56 329.91 41.8331 329.183C41.1062 328.456 40.6979 327.47 40.6979 326.442C40.6979 325.414 41.1062 324.429 41.8331 323.702C42.56 322.975 43.5459 322.566 44.5738 322.566Z" fill="#E6E6E6"/>
</g>
<defs>
<clipPath id="clip0_1241_6065">
<rect width="400" height="399" fill="white"/>
</clipPath>
</defs>
</svg>
