<svg width="288" height="51" viewBox="0 0 288 51" fill="none" xmlns="http://www.w3.org/2000/svg">
<path d="M38.2444 0L17.3668 49.5409L0 8.33236H10.7404L17.3668 24.1336L27.4874 0.000308234L38.2444 0ZM32.5824 31.8477C32.5824 29.3002 33.0662 26.9174 34.0334 24.6996C35.0006 22.4822 36.3217 20.5358 37.9965 18.8609C39.6717 17.1858 41.6178 15.865 43.8352 14.8978C46.0526 13.9306 48.4351 13.4471 50.9833 13.4471C53.5308 13.4471 55.9136 13.9306 58.1313 14.8978C60.3488 15.865 62.2952 17.1861 63.9698 18.8609C65.6452 20.5361 66.966 22.4822 67.9332 24.6996C68.9004 26.9171 69.3838 29.2998 69.3838 31.8477C69.3838 34.3955 68.9004 36.778 67.9332 38.9957C66.966 41.2132 65.6449 43.1596 63.9698 44.8345C62.2952 46.5096 60.3488 47.8303 58.1313 48.7976C55.9139 49.7648 53.5311 50.2485 50.9833 50.2485C48.4354 50.2485 46.053 49.7648 43.8352 48.7976C41.6178 47.8303 39.6714 46.5093 37.9965 44.8345C36.3213 43.1593 35.0006 41.2132 34.0334 38.9957C33.0662 36.7783 32.5824 34.3958 32.5824 31.8477ZM42.4905 31.8477C42.4905 33.0274 42.715 34.1239 43.1627 35.1386C43.6111 36.1529 44.2245 37.0496 45.0029 37.8281C45.7814 38.6065 46.6781 39.2196 47.6924 39.668C48.7067 40.1163 49.8036 40.3405 50.9833 40.3405C52.1627 40.3405 53.2598 40.116 54.2742 39.668C55.2888 39.2196 56.1849 38.6065 56.9637 37.8281C57.7421 37.0496 58.3552 36.1526 58.8036 35.1386C59.2519 34.1239 59.4758 33.0274 59.4758 31.8477C59.4758 30.6683 59.2519 29.5711 58.8036 28.5568C58.3552 27.5422 57.7421 26.6461 56.9637 25.8676C56.1849 25.0889 55.2885 24.4755 54.2742 24.0274C53.2598 23.5791 52.1627 23.3552 50.9833 23.3552C49.8036 23.3552 48.7067 23.5791 47.6924 24.0274C46.6778 24.4755 45.7814 25.0889 45.0029 25.8676C44.2245 26.6461 43.6111 27.5422 43.1627 28.5568C42.7147 29.5711 42.4905 30.6683 42.4905 31.8477ZM72.2153 14.1548H82.1233V30.7862C82.1233 36.6838 85.0721 39.6328 90.97 39.6328H99.8163V14.1548H109.724V49.5409H90.97C78.4669 49.5409 72.2153 43.2893 72.2153 30.7862V14.1548ZM111.14 31.8477C111.14 29.3002 111.624 26.9054 112.591 24.6642C113.558 22.4234 114.867 20.4769 116.519 18.8258C118.17 17.1744 120.116 15.865 122.357 14.8978C124.598 13.9306 126.993 13.4471 129.54 13.4471C132.088 13.4471 134.471 13.9069 136.689 14.827C138.906 15.7474 140.84 17.033 142.492 18.6845L134.212 24.8416C133.551 24.3695 132.82 24.004 132.017 23.7447C131.215 23.4851 130.39 23.3555 129.54 23.3555C128.361 23.3555 127.264 23.5794 126.25 24.0277C125.235 24.4758 124.339 25.0892 123.56 25.8679C122.782 26.6464 122.169 27.5425 121.72 28.5571C121.272 29.5714 121.048 30.6686 121.048 31.848C121.048 33.0277 121.272 34.1242 121.72 35.1389C122.169 36.1532 122.782 37.0499 123.56 37.8284C124.339 38.6068 125.236 39.2199 126.25 39.6683C127.264 40.1166 128.361 40.3408 129.54 40.3408C130.39 40.3408 131.216 40.2108 132.017 39.9513C132.82 39.6917 133.551 39.3262 134.212 38.8544L142.492 45.0115C140.84 46.6633 138.906 47.9486 136.689 48.8687C134.471 49.7885 132.089 50.2492 129.54 50.2492C126.993 50.2492 124.598 49.7654 122.357 48.7982C120.116 47.831 118.17 46.5219 116.519 44.8702C114.867 43.219 113.558 41.2729 112.591 39.0318C111.624 36.7906 111.14 34.3955 111.14 31.8477ZM145.323 0H155.231V16.2071C156.647 15.2633 158.168 14.5794 159.796 14.1548C161.424 13.7301 163.087 13.5177 164.785 13.5177C166.956 13.5177 169.078 13.8949 171.155 14.6502C173.231 15.4053 175.083 16.5493 176.71 18.0828C178.338 19.6163 179.647 21.527 180.638 23.8152C181.629 26.1038 182.124 28.7816 182.124 31.848V49.5412H172.216V31.848C172.216 30.6686 171.992 29.5714 171.544 28.5571C171.096 27.5425 170.482 26.6464 169.704 25.8679C168.925 25.0892 168.029 24.4758 167.014 24.0277C166 23.5794 164.903 23.3555 163.723 23.3555C162.544 23.3555 161.447 23.5794 160.433 24.0277C159.418 24.4758 158.522 25.0892 157.743 25.8679C156.965 26.6464 156.352 27.5425 155.903 28.5571C155.455 29.5714 155.231 30.6686 155.231 31.848V49.5412H145.323V0Z" fill="#20AA62"/>
<path d="M184.955 0H194.863V49.5409H184.955V0ZM224.588 8.33236V49.5409H214.68V8.33236H224.588ZM224.588 19.8164V29.7245H184.955V19.8164H224.588ZM238.459 36.0944C239.214 37.368 240.24 38.3943 241.538 39.1728C242.835 39.9513 244.262 40.3408 245.82 40.3408C246.669 40.3408 247.495 40.2108 248.297 39.9513C249.099 39.6917 249.83 39.3262 250.491 38.8544L258.771 45.0115C257.119 46.6633 255.185 47.9486 252.968 48.8687C250.751 49.7885 248.368 50.2492 245.82 50.2492C243.272 50.2492 240.878 49.7654 238.636 48.7982C236.395 47.831 234.449 46.5219 232.798 44.8702C231.146 43.219 229.837 41.2729 228.87 39.0318C227.903 36.7906 227.419 34.3961 227.419 31.8483C227.419 29.3008 227.903 26.906 228.87 24.6648C229.837 22.424 231.146 20.4776 232.798 18.8264C234.449 17.175 236.395 15.8656 238.636 14.8984C240.878 13.9312 243.272 13.4478 245.82 13.4478C248.367 13.4478 250.762 13.9312 253.003 14.8984C255.244 15.8656 257.191 17.175 258.842 18.8264C260.493 20.4779 261.802 22.424 262.769 24.6648C263.737 26.906 264.22 29.3008 264.22 31.8483C264.22 32.5559 264.173 33.2756 264.079 34.0066C263.984 34.7379 263.866 35.4339 263.725 36.0947H238.459L238.459 36.0944ZM245.82 23.3552C244.262 23.3552 242.835 23.7444 241.538 24.5232C240.24 25.3016 239.214 26.3277 238.459 27.6016H253.109C252.354 26.3277 251.34 25.3016 250.066 24.5232C248.792 23.7444 247.376 23.3552 245.819 23.3552H245.82ZM267.051 26.2568C267.051 21.9159 268.125 18.8138 270.272 16.9505C272.418 15.0866 275.851 14.1548 280.569 14.1548H288V24.0625H280.569C279.201 24.0625 278.257 24.3692 277.738 24.9829C277.219 25.5963 276.959 26.3982 276.959 27.3891V49.5412H267.051V26.2572V26.2568Z" fill="#6B0FAE"/>
</svg>
