<svg width="400" height="309" viewBox="0 0 400 309" fill="none" xmlns="http://www.w3.org/2000/svg">
<g clip-path="url(#clip0_1241_6119)">
<path d="M38.4288 308.214C38.4123 308.405 38.4716 308.594 38.5941 308.741C38.7165 308.889 38.8921 308.982 39.0828 309.001H365.074C365.258 308.968 365.426 308.871 365.546 308.727C365.667 308.583 365.733 308.402 365.733 308.214C365.733 308.027 365.667 307.845 365.546 307.701C365.426 307.558 365.258 307.461 365.074 307.428H39.0828C38.8921 307.446 38.7165 307.54 38.5941 307.687C38.4716 307.834 38.4123 308.023 38.4288 308.214Z" fill="#D6D6E3"/>
<path d="M213.597 230.619C213.123 233.883 211.488 236.866 208.991 239.024C206.494 241.182 203.302 242.37 200 242.37C196.698 242.37 193.506 241.182 191.009 239.024C188.512 236.866 186.877 233.883 186.403 230.619H151.617V307.427H248.383V230.619H213.597Z" fill="#D6D6E3"/>
<path d="M394.605 232.586H5.39448C3.96422 232.585 2.59296 232.017 1.58161 231.007C0.570269 229.997 0.001456 228.628 0 227.199L0 5.38694C0.001456 3.95868 0.570269 2.58934 1.58161 1.57941C2.59296 0.569473 3.96422 0.00145397 5.39448 0H394.605C396.036 0.00185037 397.406 0.570044 398.417 1.57993C399.428 2.58982 399.997 3.95894 399.999 5.38694V227.199C399.997 228.628 399.428 229.997 398.417 231.007C397.406 232.017 396.034 232.585 394.604 232.586H394.605Z" fill="#6B0FAE"/>
<path d="M390.916 8.98828H10.044V223.597H390.916V8.98828Z" fill="white"/>
<path d="M76.4997 20.9707H26.4999C25.3953 20.9707 24.4999 21.8649 24.4999 22.9679V198.721C24.4999 199.824 25.3953 200.719 26.4999 200.719H76.4997C77.6043 200.719 78.4997 199.824 78.4997 198.721V22.9679C78.4997 21.8649 77.6043 20.9707 76.4997 20.9707Z" fill="#08B549"/>
<path d="M46.4998 28.4609H56.4998C57.2954 28.4609 58.0585 28.7766 58.6211 29.3384C59.1837 29.9002 59.4998 30.6622 59.4998 31.4567V33.4539C59.4998 34.2485 59.1837 35.0105 58.6211 35.5723C58.0585 36.1341 57.2954 36.4497 56.4998 36.4497H46.4998C45.7042 36.4497 44.9411 36.1341 44.3785 35.5723C43.8159 35.0105 43.4998 34.2485 43.4998 33.4539V31.4567C43.4998 30.6622 43.8159 29.9002 44.3785 29.3384C44.9411 28.7766 45.7042 28.4609 46.4998 28.4609Z" fill="white"/>
<path d="M33.4999 184.74H69.4997C70.0302 184.74 70.5389 184.951 70.9139 185.325C71.289 185.7 71.4997 186.208 71.4997 186.737V190.732C71.4997 191.262 71.289 191.77 70.9139 192.144C70.5389 192.519 70.0302 192.729 69.4997 192.729H33.4999C32.9694 192.729 32.4607 192.519 32.0857 192.144C31.7106 191.77 31.4999 191.262 31.4999 190.732V186.737C31.4999 186.208 31.7106 185.7 32.0857 185.325C32.4607 184.951 32.9694 184.74 33.4999 184.74Z" fill="white"/>
<path d="M96.9996 20.9707H132.999C133.53 20.9707 134.039 21.1811 134.414 21.5557C134.789 21.9302 134.999 22.4382 134.999 22.9679V26.9623C134.999 27.492 134.789 28 134.414 28.3745C134.039 28.7491 133.53 28.9595 132.999 28.9595H96.9996C96.4692 28.9595 95.9605 28.7491 95.5854 28.3745C95.2103 28 94.9996 27.492 94.9996 26.9623V22.9679C94.9996 22.4382 95.2103 21.9302 95.5854 21.5557C95.9605 21.1811 96.4692 20.9707 96.9996 20.9707Z" fill="#F2F2F2"/>
<path d="M170.999 39.9434H98.9996C96.7905 39.9434 94.9996 41.7317 94.9996 43.9378V79.8873C94.9996 82.0934 96.7905 83.8817 98.9996 83.8817H170.999C173.208 83.8817 174.999 82.0934 174.999 79.8873V43.9378C174.999 41.7317 173.208 39.9434 170.999 39.9434Z" fill="#08B549"/>
<path d="M67.4997 44.4375H35.4999C33.2907 44.4375 31.4999 46.2259 31.4999 48.4319C31.4999 50.6379 33.2907 52.4263 35.4999 52.4263H67.4997C69.7089 52.4263 71.4997 50.6379 71.4997 48.4319C71.4997 46.2259 69.7089 44.4375 67.4997 44.4375Z" fill="white"/>
<path d="M350.999 167.764H103C98.5813 167.764 94.9996 171.34 94.9996 175.752V192.729C94.9996 197.141 98.5813 200.717 103 200.717H350.999C355.417 200.717 358.999 197.141 358.999 192.729V175.752C358.999 171.34 355.417 167.764 350.999 167.764Z" fill="#F2F2F2"/>
<path d="M320.999 20.9707H356.999C357.529 20.9707 358.038 21.1811 358.413 21.5557C358.788 21.9302 358.999 22.4382 358.999 22.9679V26.9623C358.999 27.492 358.788 28 358.413 28.3745C358.038 28.7491 357.529 28.9595 356.999 28.9595H320.999C320.468 28.9595 319.96 28.7491 319.585 28.3745C319.209 28 318.999 27.492 318.999 26.9623V22.9679C318.999 22.4382 319.209 21.9302 319.585 21.5557C319.96 21.1811 320.468 20.9707 320.999 20.9707Z" fill="#08B549"/>
<path opacity="0.149" d="M67.4997 56.4199H35.4999C33.2907 56.4199 31.4999 58.2083 31.4999 60.4143C31.4999 62.6204 33.2907 64.4087 35.4999 64.4087H67.4997C69.7089 64.4087 71.4997 62.6204 71.4997 60.4143C71.4997 58.2083 69.7089 56.4199 67.4997 56.4199Z" fill="white"/>
<path opacity="0.149" d="M67.4997 68.4043H35.4999C33.2907 68.4043 31.4999 70.1926 31.4999 72.3987C31.4999 74.6047 33.2907 76.3931 35.4999 76.3931H67.4997C69.7089 76.3931 71.4997 74.6047 71.4997 72.3987C71.4997 70.1926 69.7089 68.4043 67.4997 68.4043Z" fill="white"/>
<path opacity="0.149" d="M67.4997 80.3867H35.4999C33.2907 80.3867 31.4999 82.1751 31.4999 84.3811C31.4999 86.5872 33.2907 88.3755 35.4999 88.3755H67.4997C69.7089 88.3755 71.4997 86.5872 71.4997 84.3811C71.4997 82.1751 69.7089 80.3867 67.4997 80.3867Z" fill="white"/>
<path opacity="0.149" d="M67.4997 92.3711H35.4999C33.2907 92.3711 31.4999 94.1594 31.4999 96.3655C31.4999 98.5715 33.2907 100.36 35.4999 100.36H67.4997C69.7089 100.36 71.4997 98.5715 71.4997 96.3655C71.4997 94.1594 69.7089 92.3711 67.4997 92.3711Z" fill="white"/>
<path d="M354.999 39.9434H282.999C280.79 39.9434 278.999 41.7317 278.999 43.9378V79.8873C278.999 82.0934 280.79 83.8817 282.999 83.8817H354.999C357.208 83.8817 358.999 82.0934 358.999 79.8873V43.9378C358.999 41.7317 357.208 39.9434 354.999 39.9434Z" fill="#08B549"/>
<path d="M262.999 39.9434H190.999C188.79 39.9434 186.999 41.7317 186.999 43.9378V79.8873C186.999 82.0934 188.79 83.8817 190.999 83.8817H262.999C265.208 83.8817 266.999 82.0934 266.999 79.8873V43.9378C266.999 41.7317 265.208 39.9434 262.999 39.9434Z" fill="#08B549"/>
<path d="M350.999 128.818H103C98.5813 128.818 94.9996 132.395 94.9996 136.807V153.783C94.9996 158.195 98.5813 161.772 103 161.772H350.999C355.417 161.772 358.999 158.195 358.999 153.783V136.807C358.999 132.395 355.417 128.818 350.999 128.818Z" fill="#F2F2F2"/>
<path d="M350.999 89.873H103C98.5813 89.873 94.9996 93.4498 94.9996 97.8618V114.838C94.9996 119.25 98.5813 122.827 103 122.827H350.999C355.417 122.827 358.999 119.25 358.999 114.838V97.8618C358.999 93.4498 355.417 89.873 350.999 89.873Z" fill="#F2F2F2"/>
</g>
<defs>
<clipPath id="clip0_1241_6119">
<rect width="400" height="309" fill="white"/>
</clipPath>
</defs>
</svg>
