<svg width="400" height="309" viewBox="0 0 400 309" fill="none" xmlns="http://www.w3.org/2000/svg">
<g clip-path="url(#clip0_1241_6017)">
<path d="M65.0242 308.214C65.0242 308.65 65.2635 309 65.5614 309H333.436C333.736 309 333.973 308.651 333.973 308.214C333.973 307.778 333.734 307.428 333.436 307.428H65.5614C65.2635 307.428 65.0242 307.778 65.0242 308.214Z" fill="#CCCCCC"/>
<path d="M162.33 305.621H152.766V307.306H162.33V305.621Z" fill="#B6B3C5"/>
<path d="M246.999 305.902H237.435V307.588H246.999V305.902Z" fill="#B6B3C5"/>
<path d="M213.597 230.619C213.064 233.836 211.405 236.76 208.915 238.87C206.425 240.979 203.265 242.137 200 242.137C196.735 242.137 193.575 240.979 191.085 238.87C188.595 236.76 186.936 233.836 186.403 230.619H151.617V305.901H248.384V230.619H213.597Z" fill="#D6D6E3"/>
<path d="M248.664 299.938H151.899V302.558H248.664V299.938Z" fill="#090814"/>
<path d="M394.605 232.587H5.39453C3.9643 232.586 2.59311 232.018 1.58178 231.008C0.570452 229.998 0.00159003 228.629 0 227.2L0 5.38752C0.00145754 3.9592 0.570261 2.58978 1.5816 1.57975C2.59294 0.569727 3.96422 0.00158805 5.39453 0H394.605C396.036 0.00171985 397.407 0.569832 398.418 1.57972C399.429 2.58961 399.998 3.95882 400 5.38702V227.2C399.998 228.629 399.429 229.998 398.418 231.008C397.407 232.018 396.036 232.586 394.605 232.587Z" fill="#6B0FAE"/>
<path d="M389.935 8.48242H9.06299V223.092H389.935V8.48242Z" fill="white"/>
<path d="M197.099 172.885L144.713 186.356C142.936 186.811 141.051 186.543 139.471 185.612C137.891 184.681 136.746 183.162 136.287 181.388L120.444 119.949C119.989 118.175 120.257 116.292 121.19 114.715C122.122 113.137 123.643 111.994 125.419 111.535L174.156 99.002L186.63 104.578L202.074 164.472C202.529 166.246 202.261 168.129 201.329 169.706C200.396 171.283 198.875 172.426 197.099 172.885Z" fill="#090814"/>
<path d="M125.916 113.463C124.651 113.79 123.568 114.604 122.904 115.727C122.239 116.85 122.048 118.191 122.373 119.455L138.216 180.894C138.543 182.156 139.359 183.238 140.484 183.901C141.608 184.565 142.951 184.755 144.216 184.431L196.603 170.958C197.867 170.631 198.951 169.817 199.615 168.693C200.279 167.57 200.47 166.23 200.145 164.966L184.942 106.005L173.978 101.105L125.916 113.463Z" fill="#F2F2F2"/>
<path d="M186.497 104.896L178.388 106.982C178.095 107.057 177.789 107.074 177.49 107.032C177.19 106.99 176.902 106.889 176.641 106.735C176.38 106.582 176.152 106.378 175.971 106.136C175.789 105.895 175.656 105.62 175.581 105.327L174.039 99.347C174.032 99.3205 174.033 99.2926 174.041 99.2665C174.05 99.2404 174.065 99.2172 174.086 99.1996C174.107 99.182 174.133 99.1708 174.16 99.1672C174.187 99.1637 174.215 99.1679 174.24 99.1795L186.52 104.626C186.547 104.638 186.57 104.658 186.585 104.684C186.601 104.709 186.608 104.739 186.605 104.769C186.603 104.799 186.591 104.827 186.572 104.85C186.552 104.873 186.526 104.889 186.497 104.896Z" fill="#090814"/>
<path d="M182.232 157.363L158.381 163.496C158.235 163.534 158.082 163.543 157.932 163.521C157.783 163.5 157.638 163.45 157.508 163.373C157.378 163.296 157.264 163.195 157.173 163.074C157.082 162.953 157.016 162.815 156.978 162.669C156.94 162.523 156.932 162.371 156.953 162.221C156.974 162.071 157.025 161.927 157.102 161.797C157.179 161.667 157.281 161.553 157.401 161.463C157.522 161.372 157.66 161.306 157.807 161.268L181.658 155.134C181.953 155.058 182.268 155.102 182.531 155.257C182.794 155.413 182.984 155.666 183.061 155.961C183.137 156.257 183.092 156.571 182.937 156.833C182.782 157.096 182.528 157.287 182.232 157.363Z" fill="#CCCCCC"/>
<path d="M187.805 159.941L159.351 167.258C159.205 167.296 159.052 167.304 158.902 167.283C158.752 167.262 158.608 167.211 158.478 167.134C158.215 166.979 158.024 166.726 157.948 166.431C157.872 166.135 157.916 165.821 158.071 165.559C158.227 165.296 158.48 165.105 158.776 165.029L187.23 157.712C187.376 157.674 187.529 157.666 187.679 157.687C187.829 157.708 187.973 157.759 188.103 157.836C188.233 157.912 188.347 158.014 188.438 158.135C188.529 158.256 188.595 158.393 188.633 158.539C188.671 158.686 188.679 158.838 188.658 158.988C188.637 159.137 188.586 159.281 188.509 159.411C188.432 159.542 188.331 159.655 188.21 159.746C188.089 159.837 187.951 159.903 187.805 159.941Z" fill="#CCCCCC"/>
<path d="M148.647 170.884C150.896 170.884 152.719 169.063 152.719 166.817C152.719 164.571 150.896 162.75 148.647 162.75C146.397 162.75 144.574 164.571 144.574 166.817C144.574 169.063 146.397 170.884 148.647 170.884Z" fill="#08B549"/>
<path d="M179.697 146.72L148.019 154.863C147.104 155.097 146.133 154.959 145.319 154.479C144.505 153.999 143.916 153.217 143.679 152.303L137.041 126.551C136.807 125.637 136.946 124.668 137.426 123.856C137.907 123.044 138.69 122.455 139.605 122.219L171.281 114.076C172.196 113.842 173.168 113.98 173.981 114.46C174.795 114.94 175.385 115.723 175.621 116.636L182.259 142.388C182.493 143.302 182.355 144.271 181.874 145.083C181.394 145.895 180.611 146.483 179.697 146.72Z" fill="white"/>
<path d="M179.697 146.72L148.019 154.863C147.104 155.097 146.133 154.959 145.319 154.479C144.505 153.999 143.916 153.217 143.679 152.303L137.041 126.551C136.807 125.637 136.946 124.668 137.426 123.856C137.907 123.044 138.69 122.455 139.605 122.219L171.281 114.076C172.196 113.842 173.168 113.98 173.981 114.46C174.795 114.94 175.385 115.723 175.621 116.636L182.259 142.388C182.493 143.302 182.355 144.271 181.874 145.083C181.394 145.895 180.611 146.483 179.697 146.72ZM139.71 122.624C138.903 122.833 138.211 123.353 137.787 124.07C137.364 124.787 137.242 125.643 137.449 126.449L144.087 152.201C144.296 153.007 144.817 153.697 145.535 154.12C146.253 154.544 147.11 154.665 147.917 154.458L179.592 146.314C180.399 146.106 181.09 145.586 181.514 144.869C181.938 144.152 182.059 143.296 181.852 142.49L175.215 116.738C175.006 115.932 174.485 115.241 173.767 114.818C173.049 114.395 172.192 114.273 171.385 114.48L139.71 122.624Z" fill="#E6E6E6"/>
<path d="M169.673 122.733L153.687 126.842C153.547 126.881 153.398 126.866 153.269 126.799C153.14 126.732 153.041 126.619 152.993 126.483C152.97 126.411 152.962 126.336 152.969 126.261C152.977 126.187 152.999 126.115 153.036 126.049C153.072 125.984 153.122 125.926 153.181 125.88C153.24 125.835 153.309 125.801 153.381 125.783L169.654 121.6C170.312 121.932 170.139 122.612 169.673 122.732L169.673 122.733Z" fill="#F2F2F2"/>
<path d="M170.394 125.534L154.408 129.643C154.268 129.682 154.119 129.667 153.99 129.6C153.861 129.533 153.763 129.42 153.714 129.284C153.691 129.212 153.683 129.137 153.691 129.062C153.698 128.988 153.721 128.915 153.757 128.85C153.794 128.784 153.843 128.727 153.902 128.681C153.962 128.635 154.03 128.602 154.103 128.584L170.376 124.4C171.033 124.733 170.86 125.413 170.394 125.533L170.394 125.534Z" fill="#F2F2F2"/>
<path d="M151.364 132.125L146.485 133.379C146.406 133.399 146.324 133.404 146.243 133.392C146.163 133.381 146.085 133.354 146.015 133.312C145.945 133.271 145.883 133.216 145.834 133.151C145.785 133.086 145.75 133.012 145.73 132.933L144.247 127.184C144.227 127.105 144.222 127.023 144.234 126.943C144.245 126.862 144.272 126.785 144.314 126.715C144.355 126.645 144.41 126.584 144.475 126.535C144.54 126.486 144.614 126.45 144.693 126.43L149.572 125.176C149.731 125.135 149.9 125.159 150.042 125.242C150.184 125.326 150.286 125.462 150.328 125.621L151.81 131.37C151.83 131.449 151.835 131.531 151.823 131.611C151.812 131.692 151.785 131.769 151.743 131.839C151.702 131.91 151.647 131.971 151.582 132.02C151.517 132.068 151.443 132.104 151.364 132.124V132.125Z" fill="#08B549"/>
<path d="M171.827 131.279L147.429 137.551C147.289 137.59 147.139 137.575 147.011 137.508C146.882 137.441 146.783 137.328 146.735 137.192C146.712 137.12 146.704 137.045 146.711 136.97C146.719 136.896 146.741 136.824 146.778 136.758C146.814 136.693 146.864 136.635 146.923 136.589C146.982 136.544 147.05 136.51 147.123 136.492L171.809 130.146C172.466 130.479 172.293 131.159 171.827 131.279H171.827Z" fill="#F2F2F2"/>
<path d="M172.549 134.08L148.15 140.352C148.01 140.391 147.861 140.376 147.732 140.309C147.603 140.242 147.505 140.129 147.456 139.992C147.433 139.921 147.425 139.846 147.433 139.771C147.44 139.697 147.463 139.624 147.499 139.559C147.536 139.493 147.585 139.436 147.644 139.39C147.704 139.344 147.772 139.311 147.845 139.293L172.533 132.947C173.19 133.28 173.017 133.96 172.551 134.08H172.549Z" fill="#F2F2F2"/>
<path d="M173.27 136.879L148.872 143.151C148.732 143.19 148.583 143.174 148.454 143.108C148.325 143.041 148.227 142.928 148.178 142.791C148.155 142.72 148.147 142.645 148.155 142.57C148.162 142.495 148.185 142.423 148.221 142.358C148.257 142.292 148.307 142.235 148.366 142.189C148.426 142.143 148.494 142.11 148.566 142.091L173.252 135.746C173.91 136.079 173.734 136.759 173.27 136.879Z" fill="#F2F2F2"/>
<path d="M173.993 139.679L149.594 145.951C149.454 145.99 149.305 145.975 149.176 145.908C149.048 145.841 148.949 145.728 148.9 145.592C148.878 145.52 148.87 145.445 148.877 145.37C148.884 145.296 148.907 145.224 148.943 145.158C148.98 145.092 149.029 145.035 149.089 144.989C149.148 144.943 149.216 144.91 149.289 144.892L173.975 138.547C174.632 138.879 174.459 139.559 173.993 139.679Z" fill="#F2F2F2"/>
<path d="M174.714 142.478L150.316 148.75C150.176 148.789 150.026 148.774 149.898 148.707C149.769 148.641 149.67 148.527 149.622 148.391C149.599 148.32 149.591 148.244 149.598 148.17C149.606 148.095 149.628 148.023 149.665 147.957C149.701 147.892 149.751 147.834 149.81 147.789C149.869 147.743 149.937 147.71 150.01 147.691L174.696 141.346C175.353 141.678 175.18 142.361 174.714 142.478Z" fill="#F2F2F2"/>
<path d="M148.947 168.241C148.858 168.264 148.764 168.258 148.68 168.223H148.675L147.565 167.753C147.464 167.707 147.385 167.623 147.345 167.52C147.304 167.416 147.306 167.301 147.35 167.199C147.393 167.097 147.475 167.016 147.577 166.974C147.68 166.931 147.795 166.93 147.898 166.971L148.617 167.276L149.559 165.063C149.581 165.012 149.613 164.965 149.653 164.926C149.692 164.887 149.74 164.856 149.791 164.835C149.843 164.815 149.899 164.804 149.954 164.805C150.01 164.805 150.065 164.817 150.117 164.839L150.111 164.853L150.117 164.839C150.221 164.883 150.303 164.966 150.345 165.071C150.387 165.175 150.386 165.292 150.342 165.396L149.234 167.995C149.208 168.055 149.169 168.108 149.119 168.151C149.069 168.193 149.011 168.223 148.947 168.24L148.947 168.241Z" fill="white"/>
<path d="M248.519 189.049L195.421 178.745C193.621 178.394 192.034 177.344 191.008 175.825C189.983 174.306 189.602 172.443 189.951 170.644L202.077 108.363C202.429 106.565 203.481 104.98 205.002 103.955C206.523 102.931 208.388 102.551 210.19 102.898L259.588 112.484L268.451 122.87L256.629 183.583C256.277 185.381 255.226 186.966 253.705 187.991C252.184 189.016 250.318 189.396 248.517 189.049L248.519 189.049Z" fill="#090814"/>
<path d="M209.809 104.853C208.527 104.605 207.198 104.876 206.115 105.606C205.032 106.335 204.283 107.464 204.032 108.745L191.906 171.025C191.658 172.306 191.929 173.633 192.659 174.714C193.39 175.796 194.52 176.544 195.802 176.794L248.898 187.097C250.18 187.345 251.509 187.074 252.592 186.344C253.675 185.615 254.424 184.486 254.675 183.205L266.313 123.434L258.524 114.306L209.809 104.853Z" fill="#F2F2F2"/>
<path d="M249.053 131.262L224.876 126.569C224.576 126.511 224.312 126.336 224.141 126.083C223.971 125.831 223.907 125.52 223.966 125.221C224.024 124.921 224.199 124.657 224.452 124.487C224.705 124.316 225.016 124.253 225.316 124.311L249.493 129.004C249.793 129.062 250.057 129.236 250.228 129.489C250.398 129.742 250.462 130.053 250.403 130.352C250.345 130.651 250.17 130.915 249.917 131.086C249.664 131.257 249.353 131.32 249.053 131.262Z" fill="#08B549"/>
<path d="M252.977 135.98L224.134 130.382C223.834 130.324 223.57 130.149 223.399 129.896C223.229 129.643 223.165 129.333 223.224 129.033C223.282 128.734 223.457 128.47 223.71 128.299C223.963 128.129 224.274 128.065 224.574 128.124L253.416 133.722C253.716 133.78 253.98 133.955 254.151 134.207C254.322 134.46 254.385 134.771 254.327 135.07C254.268 135.369 254.093 135.634 253.84 135.804C253.587 135.975 253.276 136.038 252.977 135.98Z" fill="#08B549"/>
<path d="M246.169 146.086L221.991 141.393C221.692 141.335 221.381 141.398 221.128 141.569C220.875 141.739 220.7 142.003 220.641 142.303C220.583 142.602 220.646 142.913 220.817 143.165C220.988 143.418 221.252 143.593 221.552 143.651L245.729 148.344C246.029 148.402 246.339 148.339 246.593 148.168C246.846 147.997 247.021 147.733 247.079 147.434C247.137 147.135 247.074 146.824 246.903 146.571C246.733 146.319 246.468 146.144 246.169 146.086Z" fill="#CCCCCC"/>
<path d="M250.092 150.806L221.249 145.208C220.949 145.149 220.639 145.213 220.386 145.383C220.133 145.554 219.958 145.818 219.899 146.117C219.841 146.417 219.904 146.727 220.075 146.98C220.246 147.233 220.51 147.408 220.81 147.466L249.652 153.064C249.952 153.122 250.262 153.059 250.515 152.888C250.768 152.717 250.943 152.453 251.002 152.154C251.06 151.854 250.997 151.544 250.826 151.291C250.655 151.038 250.392 150.864 250.092 150.806Z" fill="#CCCCCC"/>
<path d="M242.403 165.43L218.225 160.737C217.926 160.679 217.661 160.504 217.491 160.251C217.32 159.998 217.257 159.688 217.315 159.389C217.373 159.089 217.548 158.825 217.801 158.655C218.055 158.484 218.365 158.421 218.665 158.479L242.842 163.172C243.142 163.23 243.406 163.404 243.577 163.657C243.748 163.91 243.811 164.22 243.753 164.52C243.694 164.819 243.519 165.083 243.266 165.254C243.013 165.425 242.702 165.488 242.403 165.43Z" fill="#CCCCCC"/>
<path d="M246.326 170.146L217.483 164.548C217.184 164.49 216.919 164.315 216.749 164.062C216.578 163.809 216.515 163.499 216.573 163.199C216.631 162.9 216.806 162.636 217.059 162.465C217.313 162.295 217.623 162.231 217.923 162.29L246.766 167.888C247.065 167.946 247.33 168.121 247.5 168.373C247.671 168.626 247.734 168.937 247.676 169.236C247.618 169.535 247.443 169.8 247.19 169.97C246.936 170.141 246.626 170.204 246.326 170.146Z" fill="#CCCCCC"/>
<path d="M213.88 129.385C216.088 129.814 218.226 128.374 218.655 126.169C219.084 123.964 217.643 121.829 215.435 121.401C213.227 120.972 211.09 122.412 210.66 124.617C210.231 126.822 211.673 128.957 213.88 129.385Z" fill="#08B549"/>
<path d="M213.965 126.838C213.875 126.821 213.793 126.774 213.732 126.706L213.728 126.702L212.928 125.802C212.89 125.761 212.861 125.712 212.841 125.659C212.822 125.606 212.814 125.549 212.817 125.493C212.82 125.437 212.834 125.381 212.858 125.33C212.883 125.279 212.917 125.234 212.96 125.197C213.002 125.159 213.051 125.13 213.105 125.112C213.158 125.094 213.215 125.087 213.271 125.091C213.328 125.095 213.383 125.11 213.433 125.135C213.484 125.161 213.529 125.196 213.565 125.239L214.083 125.823L215.885 124.229C215.927 124.192 215.976 124.164 216.029 124.145C216.082 124.127 216.137 124.12 216.193 124.123C216.249 124.126 216.303 124.141 216.354 124.165C216.404 124.19 216.449 124.224 216.486 124.265L216.473 124.275L216.486 124.265C216.561 124.349 216.599 124.46 216.592 124.572C216.585 124.685 216.534 124.79 216.45 124.865L214.329 126.739C214.28 126.782 214.222 126.814 214.158 126.831C214.095 126.848 214.029 126.85 213.965 126.837L213.965 126.838Z" fill="white"/>
<path d="M215.741 143.331C215.639 143.855 215.435 144.354 215.14 144.8C214.844 145.246 214.464 145.629 214.021 145.928C213.578 146.226 213.08 146.435 212.556 146.542C212.032 146.648 211.492 146.651 210.966 146.549C210.932 146.543 210.898 146.535 210.865 146.525C210.083 146.352 209.369 145.953 208.813 145.378C208.257 144.802 207.884 144.075 207.739 143.288C207.595 142.502 207.686 141.69 208.001 140.955C208.316 140.219 208.842 139.593 209.511 139.154C210.181 138.716 210.966 138.484 211.766 138.488C212.567 138.492 213.349 138.732 214.014 139.178C214.679 139.624 215.197 140.256 215.505 140.994C215.812 141.733 215.894 142.546 215.741 143.331Z" fill="#08B549"/>
<path d="M207.23 163.551C209.437 163.98 211.575 162.54 212.004 160.335C212.434 158.13 210.992 155.995 208.784 155.567C206.577 155.138 204.439 156.578 204.01 158.783C203.58 160.988 205.022 163.123 207.23 163.551Z" fill="#08B549"/>
<path d="M268.196 123.105L259.976 121.51C259.377 121.394 258.848 121.044 258.507 120.539C258.165 120.033 258.039 119.413 258.156 118.814L259.336 112.751C259.341 112.724 259.354 112.7 259.373 112.68C259.391 112.66 259.415 112.646 259.441 112.639C259.467 112.632 259.494 112.633 259.52 112.641C259.546 112.649 259.569 112.664 259.587 112.684L268.333 122.869C268.352 122.892 268.364 122.92 268.367 122.95C268.369 122.98 268.363 123.009 268.348 123.035C268.333 123.061 268.31 123.081 268.283 123.094C268.256 123.106 268.225 123.11 268.196 123.104L268.196 123.105Z" fill="#090814"/>
<path d="M298.141 61.6859H102.344C99.6805 61.6823 97.1266 60.6239 95.2429 58.7428C93.3592 56.8617 92.2994 54.3114 92.2958 51.6512V42.5288C92.2994 39.8686 93.3592 37.3183 95.2429 35.4372C97.1266 33.5561 99.6805 32.4977 102.344 32.4941H298.141C300.805 32.4977 303.358 33.5561 305.242 35.4372C307.126 37.3183 308.186 39.8686 308.189 42.5288V51.6512C308.186 54.3114 307.126 56.8617 305.242 58.7428C303.358 60.6239 300.805 61.6823 298.141 61.6859ZM102.344 33.1025C99.8418 33.1054 97.4426 34.0995 95.673 35.8666C93.9034 37.6338 92.9079 40.0297 92.905 42.5288V51.6512C92.9079 54.1503 93.9034 56.5462 95.673 58.3133C97.4426 60.0805 99.8418 61.0746 102.344 61.0775H298.141C300.643 61.0748 303.043 60.0809 304.813 58.3137C306.583 56.5465 307.578 54.1505 307.581 51.6512V42.5288C307.578 40.0297 306.583 37.6338 304.813 35.8666C303.043 34.0995 300.644 33.1054 298.142 33.1025H102.344Z" fill="#3F3D56"/>
<path d="M249.368 41.3125H113.26C110.065 41.3125 107.475 43.8992 107.475 47.09C107.475 50.2808 110.065 52.8674 113.26 52.8674H249.368C252.563 52.8674 255.154 50.2808 255.154 47.09C255.154 43.8992 252.563 41.3125 249.368 41.3125Z" fill="#08B549"/>
<path d="M292.941 56.0222C292.76 56.2793 292.485 56.4543 292.175 56.5089C291.865 56.5635 291.547 56.4933 291.289 56.3137L284.808 51.8105C284.55 51.63 284.374 51.3546 284.319 51.0448C284.265 50.7349 284.335 50.416 284.516 50.1583C284.697 49.9005 284.973 49.725 285.283 49.6704C285.593 49.6157 285.913 49.6864 286.171 49.8668L292.651 54.37C292.909 54.5508 293.084 54.8265 293.139 55.1363C293.193 55.4461 293.122 55.7648 292.941 56.0222Z" fill="#08B549"/>
<path d="M285.583 50.9062C284.627 52.2705 283.286 53.321 281.732 53.9247C280.177 54.5283 278.478 54.6581 276.85 54.2976C275.222 53.9371 273.737 53.1025 272.583 51.8993C271.43 50.6962 270.66 49.1785 270.37 47.5382C270.081 45.8979 270.285 44.2086 270.956 42.6841C271.628 41.1595 272.737 39.8681 274.144 38.9732C275.551 38.0783 277.192 37.62 278.859 37.6563C280.527 37.6926 282.146 38.2219 283.512 39.1773C284.42 39.8116 285.193 40.6182 285.788 41.5509C286.383 42.4836 286.788 43.5243 286.98 44.6134C287.173 45.7025 287.148 46.8188 286.909 47.8985C286.669 48.9782 286.219 50.0002 285.583 50.9062ZM273.494 42.4532C272.776 43.4764 272.379 44.689 272.352 45.9377C272.324 47.1865 272.668 48.4153 273.34 49.4688C274.012 50.5222 274.982 51.3531 276.127 51.8563C277.271 52.3595 278.54 52.5125 279.772 52.2958C281.004 52.0791 282.143 51.5026 283.047 50.6391C283.951 49.7755 284.578 48.6638 284.849 47.4445C285.12 46.2251 285.023 44.9529 284.57 43.7886C284.117 42.6243 283.329 41.6203 282.304 40.9035C281.624 40.4273 280.856 40.0897 280.045 39.9099C279.234 39.7301 278.396 39.7117 277.578 39.8556C276.759 39.9995 275.978 40.303 275.277 40.7487C274.576 41.1944 273.97 41.7736 273.494 42.4532Z" fill="#08B549"/>
</g>
<defs>
<clipPath id="clip0_1241_6017">
<rect width="400" height="309" fill="white"/>
</clipPath>
</defs>
</svg>
