<svg width="200" height="82" viewBox="0 0 200 82" fill="none" xmlns="http://www.w3.org/2000/svg">
<path d="M73.5929 39.7886L63.0263 64.9675L54.2366 44.0235H59.6725L63.0263 52.0544L68.1485 39.7888H73.5929V39.7886ZM70.7273 55.975C70.7273 54.6803 70.9721 53.4692 71.4616 52.3421C71.9512 51.2151 72.6198 50.2258 73.4675 49.3746C74.3153 48.5232 75.3003 47.8519 76.4226 47.3604C77.5449 46.8688 78.7507 46.6231 80.0404 46.6231C81.3297 46.6231 82.5357 46.8688 83.6581 47.3604C84.7804 47.8519 85.7656 48.5234 86.6131 49.3746C87.4611 50.226 88.1295 51.2151 88.6191 52.3421C89.1086 53.4691 89.3533 54.6801 89.3533 55.975C89.3533 57.27 89.1086 58.4808 88.6191 59.608C88.1295 60.735 87.4609 61.7243 86.6131 62.5755C85.7656 63.4269 84.7804 64.0981 83.6581 64.5897C82.5359 65.0813 81.3299 65.3272 80.0404 65.3272C78.7508 65.3272 77.545 65.0813 76.4226 64.5897C75.3003 64.0981 74.3151 63.4267 73.4675 62.5755C72.6196 61.7241 71.9512 60.735 71.4616 59.608C70.9721 58.481 70.7273 57.2701 70.7273 55.975ZM75.742 55.975C75.742 56.5746 75.8556 57.1319 76.0822 57.6476C76.3091 58.1631 76.6196 58.6189 77.0136 59.0145C77.4076 59.4102 77.8614 59.7218 78.3748 59.9497C78.8881 60.1775 79.4433 60.2915 80.0404 60.2915C80.6373 60.2915 81.1926 60.1774 81.7059 59.9497C82.2195 59.7218 82.673 59.4102 83.0672 59.0145C83.4612 58.6189 83.7715 58.163 83.9984 57.6476C84.2253 57.1319 84.3386 56.5746 84.3386 55.975C84.3386 55.3756 84.2253 54.818 83.9984 54.3025C83.7715 53.7868 83.4612 53.3314 83.0672 52.9357C82.673 52.5399 82.2193 52.2281 81.7059 52.0004C81.1926 51.7726 80.6373 51.6588 80.0404 51.6588C79.4433 51.6588 78.8881 51.7726 78.3748 52.0004C77.8612 52.2281 77.4076 52.5399 77.0136 52.9357C76.6196 53.3314 76.3091 53.7868 76.0822 54.3025C75.8554 54.818 75.742 55.3756 75.742 55.975ZM90.7864 46.9827H95.801V55.4356C95.801 58.433 97.2935 59.9318 100.279 59.9318H104.756V46.9827H109.771V64.9675H100.279C93.9505 64.9675 90.7864 61.7902 90.7864 55.4356V46.9827ZM110.487 55.975C110.487 54.6803 110.732 53.4631 111.221 52.3241C111.711 51.1852 112.373 50.1959 113.209 49.3567C114.045 48.5174 115.03 47.8519 116.164 47.3604C117.299 46.8688 118.511 46.6231 119.8 46.6231C121.089 46.6231 122.295 46.8567 123.418 47.3244C124.54 47.7922 125.519 48.4456 126.355 49.2849L122.164 52.4142C121.83 52.1743 121.46 51.9885 121.054 51.8568C120.648 51.7248 120.23 51.6589 119.8 51.6589C119.203 51.6589 118.648 51.7727 118.134 52.0006C117.621 52.2283 117.167 52.5401 116.773 52.9359C116.379 53.3315 116.069 53.7869 115.842 54.3026C115.615 54.8182 115.502 55.3758 115.502 55.9752C115.502 56.5748 115.615 57.1321 115.842 57.6478C116.069 58.1633 116.379 58.619 116.773 59.0147C117.167 59.4103 117.621 59.7219 118.134 59.9498C118.648 60.1777 119.203 60.2916 119.8 60.2916C120.23 60.2916 120.648 60.2256 121.054 60.0936C121.46 59.9617 121.83 59.7759 122.164 59.5362L126.355 62.6655C125.519 63.505 124.54 64.1582 123.418 64.6259C122.296 65.0934 121.09 65.3275 119.8 65.3275C118.511 65.3275 117.299 65.0816 116.164 64.59C115.03 64.0985 114.045 63.4331 113.209 62.5937C112.373 61.7545 111.711 60.7654 111.221 59.6263C110.732 58.4873 110.487 57.2703 110.487 55.9754V55.975ZM127.788 39.7886H132.802V48.0258C133.519 47.5461 134.289 47.1985 135.113 46.9827C135.937 46.7669 136.778 46.6589 137.638 46.6589C138.737 46.6589 139.811 46.8506 140.862 47.2345C141.912 47.6183 142.85 48.1997 143.674 48.9791C144.497 49.7585 145.16 50.7296 145.661 51.8926C146.163 53.0557 146.414 54.4167 146.414 55.9752V64.9677H141.399V55.9752C141.399 55.3758 141.286 54.8182 141.059 54.3026C140.832 53.7869 140.521 53.3315 140.128 52.9359C139.733 52.5401 139.28 52.2283 138.766 52.0006C138.253 51.7727 137.698 51.6589 137.101 51.6589C136.504 51.6589 135.949 51.7727 135.435 52.0006C134.922 52.2283 134.468 52.5401 134.074 52.9359C133.68 53.3315 133.37 53.7869 133.143 54.3026C132.916 54.8182 132.802 55.3758 132.802 55.9752V64.9677H127.788V39.7888V39.7886Z" fill="#20AA62"/>
<path d="M147.847 39.7886H152.861V64.9675H147.847V39.7886ZM167.906 44.0235V64.9675H162.891V44.0235H167.906ZM167.906 49.8602V54.8959H147.847V49.8602H167.906ZM174.926 58.1334C175.308 58.7807 175.828 59.3023 176.484 59.698C177.141 60.0936 177.863 60.2916 178.651 60.2916C179.081 60.2916 179.499 60.2256 179.905 60.0936C180.311 59.9617 180.681 59.7759 181.016 59.5362L185.206 62.6655C184.371 63.505 183.392 64.1582 182.269 64.6259C181.147 65.0934 179.941 65.3275 178.651 65.3275C177.362 65.3275 176.15 65.0816 175.016 64.59C173.882 64.0985 172.896 63.4331 172.061 62.5937C171.225 61.7545 170.562 60.7654 170.073 59.6263C169.583 58.4873 169.339 57.2703 169.339 55.9754C169.339 54.6806 169.583 53.4634 170.073 52.3244C170.562 51.1855 171.225 50.1962 172.061 49.3571C172.897 48.5177 173.882 47.8523 175.016 47.3607C176.15 46.8691 177.362 46.6234 178.651 46.6234C179.941 46.6234 181.153 46.8691 182.287 47.3607C183.421 47.8523 184.407 48.5177 185.242 49.3571C186.078 50.1964 186.741 51.1855 187.23 52.3244C187.72 53.4634 187.964 54.6806 187.964 55.9754C187.964 56.335 187.941 56.7008 187.893 57.0723C187.845 57.444 187.785 57.7977 187.714 58.1336H174.926L174.926 58.1334ZM178.651 51.6588C177.863 51.6588 177.141 51.8566 176.484 52.2524C175.828 52.6481 175.308 53.1695 174.926 53.817H182.341C181.959 53.1695 181.445 52.6481 180.8 52.2524C180.156 51.8566 179.439 51.6588 178.651 51.6588H178.651ZM189.397 53.1335C189.397 50.9273 189.941 49.3506 191.027 48.4036C192.114 47.4563 193.851 46.9827 196.239 46.9827H200V52.0183H196.239C195.546 52.0183 195.069 52.1742 194.806 52.4861C194.543 52.7978 194.412 53.2054 194.412 53.709V64.9677H189.397V53.1337V53.1335Z" fill="#6B0FAE"/>
<path fill-rule="evenodd" clip-rule="evenodd" d="M0.249512 81.5577L0.351439 81.6601L0.453366 81.5577H0.249512Z" fill="#5E5873"/>
<path fill-rule="evenodd" clip-rule="evenodd" d="M81.6622 0.00845129L63.4439 0L13.5613 49.1366V15.3397H0V82.0003C27.2103 54.6759 54.436 27.349 81.6622 0.00845129Z" fill="#20AA62"/>
<path fill-rule="evenodd" clip-rule="evenodd" d="M38.5066 0.0117188H52.0679C52.0679 27.2641 52.0679 54.3054 52.0679 81.5577H38.5066C38.5066 54.3757 38.5066 27.1937 38.5066 0.0117188Z" fill="#6B0FAE"/>
</svg>
