<svg width="217" height="38" viewBox="0 0 217 38" fill="none" xmlns="http://www.w3.org/2000/svg">
<path d="M28.8161 0L13.0854 37.3277L0 6.2782H8.09259L13.0854 18.184L20.711 0.000232246H28.8161V0ZM24.5499 23.9963C24.5499 22.0769 24.9144 20.2815 25.6432 18.6105C26.372 16.9397 27.3673 15.4731 28.6293 14.2112C29.8915 12.949 31.3578 11.9539 33.0286 11.2251C34.6994 10.4963 36.4945 10.132 38.4145 10.132C40.334 10.132 42.1293 10.4963 43.8003 11.2251C45.4711 11.9539 46.9377 12.9492 48.1994 14.2112C49.4618 15.4734 50.457 16.9397 51.1857 18.6105C51.9145 20.2813 52.2788 22.0766 52.2788 23.9963C52.2788 25.9161 51.9145 27.7112 51.1857 29.3822C50.457 31.053 49.4616 32.5196 48.1994 33.7815C46.9377 35.0437 45.4711 36.0388 43.8003 36.7676C42.1296 37.4964 40.3342 37.8609 38.4145 37.8609C36.4947 37.8609 34.6996 37.4964 33.0286 36.7676C31.3578 36.0388 29.8912 35.0435 28.6293 33.7815C27.3671 32.5193 26.372 31.053 25.6432 29.3822C24.9144 27.7114 24.5499 25.9163 24.5499 23.9963ZM32.0154 23.9963C32.0154 24.8852 32.1845 25.7114 32.5219 26.4759C32.8597 27.2402 33.3219 27.9158 33.9084 28.5024C34.495 29.0889 35.1706 29.5509 35.9349 29.8887C36.6992 30.2265 37.5256 30.3954 38.4145 30.3954C39.3031 30.3954 40.1298 30.2263 40.8941 29.8887C41.6586 29.5509 42.3337 29.0889 42.9205 28.5024C43.5071 27.9158 43.969 27.24 44.3068 26.4759C44.6446 25.7114 44.8133 24.8852 44.8133 23.9963C44.8133 23.1077 44.6446 22.281 44.3068 21.5168C43.969 20.7523 43.5071 20.0771 42.9205 19.4905C42.3337 18.9038 41.6583 18.4416 40.8941 18.104C40.1298 17.7662 39.3031 17.5975 38.4145 17.5975C37.5256 17.5975 36.6992 17.7662 35.9349 18.104C35.1704 18.4416 34.495 18.9038 33.9084 19.4905C33.3219 20.0771 32.8597 20.7523 32.5219 21.5168C32.1843 22.281 32.0154 23.1077 32.0154 23.9963ZM54.4122 10.6652H61.8776V23.1966C61.8776 27.6402 64.0994 29.8622 68.5433 29.8622H75.2087V10.6652H82.6742V37.3277H68.5433C59.1226 37.3277 54.4122 32.6172 54.4122 23.1966V10.6652ZM83.7408 23.9963C83.7408 22.0769 84.1053 20.2724 84.8341 18.5838C85.5626 16.8954 86.5491 15.4288 87.7935 14.1847C89.0378 12.9404 90.5041 11.9539 92.1925 11.2251C93.8814 10.4963 95.6856 10.132 97.6051 10.132C99.5248 10.132 101.32 10.4784 102.991 11.1717C104.662 11.8652 106.119 12.8339 107.364 14.0782L101.125 18.7174C100.627 18.3618 100.076 18.0864 99.4715 17.891C98.867 17.6954 98.245 17.5977 97.6051 17.5977C96.7165 17.5977 95.89 17.7664 95.1255 18.1042C94.3612 18.4418 93.6858 18.904 93.0993 19.4908C92.5127 20.0773 92.0506 20.7525 91.7127 21.517C91.3751 22.2813 91.2062 23.1079 91.2062 23.9966C91.2062 24.8854 91.3754 25.7117 91.7127 26.4762C92.0506 27.2404 92.5127 27.9161 93.0993 28.5026C93.6858 29.0892 94.3615 29.5511 95.1255 29.8889C95.89 30.2268 96.7165 30.3957 97.6051 30.3957C98.245 30.3957 98.8673 30.2978 99.4715 30.1022C100.076 29.9066 100.627 29.6312 101.125 29.2757L107.364 33.9149C106.119 35.1595 104.662 36.1279 102.991 36.8212C101.32 37.5142 99.525 37.8613 97.6051 37.8613C95.6856 37.8613 93.8814 37.4968 92.1925 36.7681C90.5041 36.0393 89.0376 35.053 87.7935 33.8084C86.5491 32.5643 85.5626 31.098 84.8341 29.4094C84.1053 27.7207 83.7408 25.9165 83.7408 23.9968V23.9963ZM109.497 0H116.962V12.2116C118.029 11.5005 119.175 10.9852 120.402 10.6652C121.628 10.3453 122.881 10.1852 124.161 10.1852C125.796 10.1852 127.396 10.4694 128.96 11.0385C130.524 11.6075 131.92 12.4694 133.146 13.6249C134.373 14.7803 135.359 16.22 136.106 17.9441C136.852 19.6685 137.225 21.6861 137.225 23.9966V37.3279H129.76V23.9966C129.76 23.1079 129.591 22.2813 129.253 21.517C128.916 20.7525 128.454 20.0773 127.867 19.4908C127.28 18.904 126.605 18.4418 125.841 18.1042C125.076 17.7664 124.25 17.5977 123.361 17.5977C122.472 17.5977 121.646 17.7664 120.881 18.1042C120.117 18.4418 119.442 18.904 118.855 19.4908C118.268 20.0773 117.807 20.7525 117.469 21.517C117.131 22.2813 116.962 23.1079 116.962 23.9966V37.3279H109.497V0.000232246V0Z" fill="#20AA62"/>
<path d="M139.359 0H146.824V37.3277H139.359V0ZM169.221 6.2782V37.3277H161.755V6.2782H169.221ZM169.221 14.9311V22.3966H139.359V14.9311H169.221ZM179.672 27.1961C180.241 28.1558 181.015 28.9291 181.992 29.5156C182.97 30.1022 184.045 30.3957 185.218 30.3957C185.858 30.3957 186.48 30.2978 187.085 30.1022C187.689 29.9066 188.24 29.6312 188.738 29.2757L194.977 33.9149C193.732 35.1595 192.275 36.1279 190.604 36.8212C188.934 37.5142 187.138 37.8613 185.218 37.8613C183.299 37.8613 181.495 37.4968 179.806 36.7681C178.117 36.0393 176.651 35.053 175.407 33.8084C174.162 32.5643 173.176 31.098 172.447 29.4094C171.718 27.7207 171.354 25.9165 171.354 23.9968C171.354 22.0773 171.718 20.2729 172.447 18.5843C173.176 16.8959 174.162 15.4293 175.407 14.1852C176.651 12.9409 178.117 11.9543 179.806 11.2255C181.495 10.4968 183.299 10.1325 185.218 10.1325C187.138 10.1325 188.942 10.4968 190.631 11.2255C192.319 11.9543 193.786 12.9409 195.03 14.1852C196.274 15.4295 197.261 16.8959 197.99 18.5843C198.718 20.2729 199.083 22.0773 199.083 23.9968C199.083 24.53 199.047 25.0722 198.976 25.623C198.905 26.1741 198.816 26.6984 198.709 27.1964H179.672L179.672 27.1961ZM185.218 17.5975C184.045 17.5975 182.97 17.8908 181.992 18.4775C181.015 19.0641 180.241 19.8372 179.672 20.797H190.711C190.142 19.8372 189.377 19.0641 188.418 18.4775C187.458 17.8908 186.391 17.5975 185.218 17.5975H185.218ZM201.216 19.7838C201.216 16.513 202.025 14.1757 203.642 12.7717C205.26 11.3673 207.846 10.6652 211.401 10.6652H217V18.1304H211.401C210.37 18.1304 209.659 18.3615 209.268 18.8239C208.877 19.2861 208.681 19.8903 208.681 20.6369V37.3279H201.216V19.784V19.7838Z" fill="#6B0FAE"/>
</svg>
